<svg xmlns="http://www.w3.org/2000/svg" viewBox="0 0 65.66 40">
  <title>Asset 1</title>
  <g id="Layer_2" data-name="Layer 2">
    <g id="ec6545f3-b1a4-4df5-8846-cf1dff586a90">
      <path d="M8.83,32.29a3.3,3.3,0,0,1-.3.64A4.6,4.6,0,0,1,5,35.09a7.69,7.69,0,0,1-3.4-.4,1,1,0,0,0-.82.11,1,1,0,0,0-.45.63L0,37a14.07,14.07,0,0,0,2.09,1.29,15.94,15.94,0,0,0,2.84,1.1A17.85,17.85,0,0,0,9.76,40c.36,0,.71,0,1.06,0a16,16,0,0,0,8.66-3,10.08,10.08,0,0,0,3.59-4.71h0l3-9.05a.5.5,0,0,1,.85-.12c.16.2,4.67,5.8,7.58,9.29.24.29.49.56.75.82a22,22,0,0,0,28.19,3,11.55,11.55,0,0,0,1.81-1.47,1.2,1.2,0,0,0-.84-2.06,1.25,1.25,0,0,0-.55.13A11,11,0,0,1,51.41,31C48,27.69,40.35,17.56,39.9,17a.5.5,0,0,1,.12-.7l.14-.07.77-.26A41.11,41.11,0,0,0,61.81,0H44.71a.94.94,0,0,0-.87.5A43.93,43.93,0,0,1,29.15,17a.5.5,0,0,1-.75-.57L33.94,0H8.07a1,1,0,0,0-1,.75L6.34,4.63H17.45a.5.5,0,0,1,.47.67Z" fill="red"/>
    </g>
  </g>
</svg>
